<svg width="601.7485595703125px" height="129.8px" xmlns="http://www.w3.org/2000/svg" viewBox="-50.87427978515626 10.099999999999994 601.7485595703125 129.8" style="background: none;" preserveAspectRatio="xMidYMid"><defs><filter id="editing-extrude-glow"><feFlood flood-color="none" result="flood-1"></feFlood><feMorphology operator="erode" radius="1" in="SourceAlpha" result="erode"></feMorphology><feComposite operator="in" in="flood-1" in2="erode" result="comp1"></feComposite><feConvolveMatrix order="0,0" divisor="1" in="comp1" result="convolve" kernelMatrix=""></feConvolveMatrix><feOffset dx="0" dy="0" in="convolve" result="extrude"></feOffset><feComposite operator="in" in="flood-1" in2="extrude" result="comp-extrude"></feComposite><feFlood flood-color="none" result="flood-2"></feFlood><feComposite operator="in" in="flood-2" in2="SourceAlpha" result="comp2"></feComposite><feMorphology operator="dilate" radius="1" in="comp2" result="dilate"></feMorphology><feOffset dx="0" dy="0" in="dilate" result="offset"></feOffset><feGaussianBlur in="offset" stdDeviation="5.8" result="blur"></feGaussianBlur><feComponentTransfer in="blur" result="shadow"><feFuncA type="linear" slope="0.8" intercept="-0.2"></feFuncA></feComponentTransfer><feMerge><feMergeNode in="shadow"></feMergeNode><feMergeNode in="comp-extrude"></feMergeNode><feMergeNode in="SourceGraphic"></feMergeNode></feMerge></filter></defs><g filter="url(#editing-extrude-glow)"><g transform="translate(37.742888659238815, 101.88000297546387)"><path d="M35.84-28.86L25.22-28.86L25.22-28.86Q25.41-29.82 25.41-31.49L25.41-31.49L25.41-31.49Q25.41-32.45 25.28-33.38L25.28-33.38L25.28-33.38Q25.15-34.30 24.83-35.04L24.83-35.04L24.83-35.04Q24.51-35.78 23.87-36.19L23.87-36.19L23.87-36.19Q23.23-36.61 22.21-36.61L22.21-36.61L22.21-36.61Q21.06-36.61 20.10-36.10L20.10-36.10L20.10-36.10Q19.14-35.58 18.40-34.78L18.40-34.78L18.40-34.78Q17.66-33.98 17.25-32.93L17.25-32.93L17.25-32.93Q16.83-31.87 16.83-30.72L16.83-30.72L16.83-30.72Q16.83-29.06 17.70-28.16L17.70-28.16L17.70-28.16Q18.56-27.26 19.97-26.69L19.97-26.69L19.97-26.69Q21.38-26.11 23.17-25.73L23.17-25.73L23.17-25.73Q24.96-25.34 26.88-24.83L26.88-24.83L26.88-24.83Q28.48-24.38 30.08-23.68L30.08-23.68L30.08-23.68Q31.68-22.98 32.93-21.79L32.93-21.79L32.93-21.79Q34.18-20.61 34.94-18.72L34.94-18.72L34.94-18.72Q35.71-16.83 35.71-14.02L35.71-14.02L35.71-14.02Q35.71-9.98 34.11-7.23L34.11-7.23L34.11-7.23Q32.51-4.48 29.70-2.75L29.70-2.75L29.70-2.75Q26.88-1.02 23.01-0.26L23.01-0.26L23.01-0.26Q19.14 0.51 14.59 0.51L14.59 0.51L14.59 0.51Q9.98 0.51 7.07-0.10L7.07-0.10L7.07-0.10Q4.16-0.70 2.50-1.41L2.50-1.41L2.50-1.41Q0.51-2.24-0.45-3.33L-0.45-3.33L1.73-12.10L12.99-12.10L12.99-12.10Q12.93-11.52 12.86-10.53L12.86-10.53L12.86-10.53Q12.80-9.54 12.80-8.96L12.80-8.96L12.80-8.96Q12.80-8.19 12.99-7.36L12.99-7.36L12.99-7.36Q13.18-6.53 13.60-5.82L13.60-5.82L13.60-5.82Q14.02-5.12 14.78-4.67L14.78-4.67L14.78-4.67Q15.55-4.22 16.70-4.22L16.70-4.22L16.70-4.22Q17.98-4.22 18.98-4.80L18.98-4.80L18.98-4.80Q19.97-5.38 20.64-6.24L20.64-6.24L20.64-6.24Q21.31-7.10 21.66-8.16L21.66-8.16L21.66-8.16Q22.02-9.22 22.02-10.24L22.02-10.24L22.02-10.24Q22.02-11.65 21.34-12.61L21.34-12.61L21.34-12.61Q20.67-13.57 19.52-14.24L19.52-14.24L19.52-14.24Q18.37-14.91 16.86-15.39L16.86-15.39L16.86-15.39Q15.36-15.87 13.76-16.38L13.76-16.38L13.76-16.38Q12.22-16.83 10.53-17.47L10.53-17.47L10.53-17.47Q8.83-18.11 7.42-19.26L7.42-19.26L7.42-19.26Q6.02-20.42 5.09-22.18L5.09-22.18L5.09-22.18Q4.16-23.94 4.16-26.69L4.16-26.69L4.16-26.69Q4.16-30.78 6.24-33.57L6.24-33.57L6.24-33.57Q8.32-36.35 11.49-38.08L11.49-38.08L11.49-38.08Q14.66-39.81 18.43-40.54L18.43-40.54L18.43-40.54Q22.21-41.28 25.60-41.28L25.60-41.28L25.60-41.28Q30.08-41.28 33.31-40.22L33.31-40.22L33.31-40.22Q36.54-39.17 38.21-37.76L38.21-37.76L35.84-28.86ZM55.87-27.52L49.92 0L36.93 0L42.75-27.52L55.87-27.52ZM57.54-35.90L57.54-35.90L57.54-35.90Q57.54-34.43 56.93-33.34L56.93-33.34L56.93-33.34Q56.32-32.26 55.33-31.49L55.33-31.49L55.33-31.49Q54.34-30.72 53.06-30.34L53.06-30.34L53.06-30.34Q51.78-29.95 50.43-29.95L50.43-29.95L50.43-29.95Q47.87-29.95 46.14-31.17L46.14-31.17L46.14-31.17Q44.42-32.38 44.42-35.01L44.42-35.01L44.42-35.01Q44.42-36.42 44.99-37.54L44.99-37.54L44.99-37.54Q45.57-38.66 46.56-39.39L46.56-39.39L46.56-39.39Q47.55-40.13 48.86-40.51L48.86-40.51L48.86-40.51Q50.18-40.90 51.58-40.90L51.58-40.90L51.58-40.90Q54.08-40.90 55.81-39.68L55.81-39.68L55.81-39.68Q57.54-38.46 57.54-35.90ZM73.09-23.42L73.47-23.42L73.47-23.42Q74.82-24.70 76.48-25.79L76.48-25.79L76.48-25.79Q77.95-26.69 80-27.46L80-27.46L80-27.46Q82.05-28.22 84.61-28.22L84.61-28.22L84.61-28.22Q87.68-28.22 89.18-26.82L89.18-26.82L89.18-26.82Q90.69-25.41 90.88-23.36L90.88-23.36L91.26-23.36L91.26-23.36Q92.74-24.70 94.46-25.79L94.46-25.79L94.46-25.79Q95.94-26.69 97.92-27.46L97.92-27.46L97.92-27.46Q99.90-28.22 102.14-28.22L102.14-28.22L102.14-28.22Q105.47-28.22 107.55-26.40L107.55-26.40L107.55-26.40Q109.63-24.58 109.63-21.70L109.63-21.70L109.63-21.70Q109.63-20.22 109.12-17.79L109.12-17.79L109.12-17.79Q108.61-15.36 107.97-12.48L107.97-12.48L105.28 0L92.67 0L96.13-16.70L96.13-16.70Q96.32-17.66 96.51-18.56L96.51-18.56L96.51-18.56Q96.70-19.46 96.70-20.03L96.70-20.03L96.70-20.03Q96.70-20.93 96.19-21.54L96.19-21.54L96.19-21.54Q95.68-22.14 94.72-22.14L94.72-22.14L94.72-22.14Q93.50-22.14 92.45-21.28L92.45-21.28L92.45-21.28Q91.39-20.42 90.82-19.84L90.82-19.84L86.66 0L74.69 0L78.21-16.70L78.21-16.70Q78.34-17.54 78.53-18.40L78.53-18.40L78.53-18.40Q78.72-19.26 78.72-19.97L78.72-19.97L78.72-19.97Q78.72-20.93 78.24-21.54L78.24-21.54L78.24-21.54Q77.76-22.14 76.80-22.14L76.80-22.14L76.80-22.14Q75.65-22.14 74.59-21.31L74.59-21.31L74.59-21.31Q73.54-20.48 72.96-19.90L72.96-19.90L68.74 0L55.68 0L61.50-27.52L71.94-27.52L73.09-23.42ZM124.74-4.16L121.54 10.75L108.48 10.75L116.54-27.52L126.98-27.52L128.13-23.42L128.51-23.42L128.51-23.42Q130.82-25.86 133.66-26.91L133.66-26.91L133.66-26.91Q136.51-27.97 139.26-27.97L139.26-27.97L139.26-27.97Q141.50-27.97 143.01-27.30L143.01-27.30L143.01-27.30Q144.51-26.62 145.41-25.47L145.41-25.47L145.41-25.47Q146.30-24.32 146.69-22.72L146.69-22.72L146.69-22.72Q147.07-21.12 147.07-19.33L147.07-19.33L147.07-19.33Q147.07-18.43 146.94-16.64L146.94-16.64L146.94-16.64Q146.82-14.85 146.37-12.64L146.37-12.64L146.37-12.64Q145.92-10.43 145.09-8.10L145.09-8.10L145.09-8.10Q144.26-5.76 142.88-3.84L142.88-3.84L142.88-3.84Q141.50-1.92 139.42-0.70L139.42-0.70L139.42-0.70Q137.34 0.51 134.46 0.51L134.46 0.51L134.46 0.51Q132.86 0.51 131.36 0.13L131.36 0.13L131.36 0.13Q129.86-0.26 128.64-0.90L128.64-0.90L128.64-0.90Q127.42-1.54 126.50-2.40L126.50-2.40L126.50-2.40Q125.57-3.26 125.12-4.16L125.12-4.16L124.74-4.16ZM128.32-5.70L128.32-5.70L128.32-5.70Q129.86-5.70 130.88-7.33L130.88-7.33L130.88-7.33Q131.90-8.96 132.54-11.17L132.54-11.17L132.54-11.17Q133.18-13.38 133.47-15.58L133.47-15.58L133.47-15.58Q133.76-17.79 133.76-18.88L133.76-18.88L133.76-18.88Q133.76-20.16 133.34-20.99L133.34-20.99L133.34-20.99Q132.93-21.82 131.84-21.82L131.84-21.82L131.84-21.82Q130.62-21.82 129.54-20.96L129.54-20.96L129.54-20.96Q128.45-20.10 127.94-19.46L127.94-19.46L125.44-7.74L125.44-7.74Q125.95-7.04 126.66-6.37L126.66-6.37L126.66-6.37Q127.36-5.70 128.32-5.70ZM170.37-43.01L161.22 0L148.16 0L157.25-43.01L170.37-43.01ZM185.86-27.52L179.90 0L166.91 0L172.74-27.52L185.86-27.52ZM187.52-35.90L187.52-35.90L187.52-35.90Q187.52-34.43 186.91-33.34L186.91-33.34L186.91-33.34Q186.30-32.26 185.31-31.49L185.31-31.49L185.31-31.49Q184.32-30.72 183.04-30.34L183.04-30.34L183.04-30.34Q181.76-29.95 180.42-29.95L180.42-29.95L180.42-29.95Q177.86-29.95 176.13-31.17L176.13-31.17L176.13-31.17Q174.40-32.38 174.40-35.01L174.40-35.01L174.40-35.01Q174.40-36.42 174.98-37.54L174.98-37.54L174.98-37.54Q175.55-38.66 176.54-39.39L176.54-39.39L176.54-39.39Q177.54-40.13 178.85-40.51L178.85-40.51L178.85-40.51Q180.16-40.90 181.57-40.90L181.57-40.90L181.57-40.90Q184.06-40.90 185.79-39.68L185.79-39.68L185.79-39.68Q187.52-38.46 187.52-35.90ZM241.98-40.64L233.28 0L219.07 0L224.96-27.65L209.79 0L201.09 0L198.21-28.61L192.06 0L186.30 0L194.94-40.64L211.26-40.64L213.25-17.73L225.54-40.64L241.98-40.64ZM258.62-27.52L252.67 0L239.68 0L245.50-27.52L258.62-27.52ZM260.29-35.90L260.29-35.90L260.29-35.90Q260.29-34.43 259.68-33.34L259.68-33.34L259.68-33.34Q259.07-32.26 258.08-31.49L258.08-31.49L258.08-31.49Q257.09-30.72 255.81-30.34L255.81-30.34L255.81-30.34Q254.53-29.95 253.18-29.95L253.18-29.95L253.18-29.95Q250.62-29.95 248.90-31.17L248.90-31.17L248.90-31.17Q247.17-32.38 247.17-35.01L247.17-35.01L247.17-35.01Q247.17-36.42 247.74-37.54L247.74-37.54L247.74-37.54Q248.32-38.66 249.31-39.39L249.31-39.39L249.31-39.39Q250.30-40.13 251.62-40.51L251.62-40.51L251.62-40.51Q252.93-40.90 254.34-40.90L254.34-40.90L254.34-40.90Q256.83-40.90 258.56-39.68L258.56-39.68L258.56-39.68Q260.29-38.46 260.29-35.90ZM275.84-23.42L276.22-23.42L276.22-23.42Q277.57-24.70 279.23-25.79L279.23-25.79L279.23-25.79Q280.70-26.69 282.69-27.46L282.69-27.46L282.69-27.46Q284.67-28.22 287.10-28.22L287.10-28.22L287.10-28.22Q290.43-28.22 292.61-26.53L292.61-26.53L292.61-26.53Q294.78-24.83 294.78-21.89L294.78-21.89L294.78-21.89Q294.78-21.06 294.59-19.87L294.59-19.87L294.59-19.87Q294.40-18.69 294.14-17.41L294.14-17.41L294.14-17.41Q293.89-16.13 293.60-14.82L293.60-14.82L293.60-14.82Q293.31-13.50 293.12-12.48L293.12-12.48L290.43 0L277.44 0L280.96-16.70L280.96-16.70Q281.09-17.54 281.28-18.40L281.28-18.40L281.28-18.40Q281.47-19.26 281.47-19.97L281.47-19.97L281.47-19.97Q281.47-20.93 280.99-21.54L280.99-21.54L280.99-21.54Q280.51-22.14 279.55-22.14L279.55-22.14L279.55-22.14Q278.40-22.14 277.34-21.31L277.34-21.31L277.34-21.31Q276.29-20.48 275.71-19.90L275.71-19.90L271.49 0L258.43 0L264.26-27.52L274.69-27.52L275.84-23.42ZM314.88-27.52L308.93 0L295.94 0L301.76-27.52L314.88-27.52ZM316.54-35.90L316.54-35.90L316.54-35.90Q316.54-34.43 315.94-33.34L315.94-33.34L315.94-33.34Q315.33-32.26 314.34-31.49L314.34-31.49L314.34-31.49Q313.34-30.72 312.06-30.34L312.06-30.34L312.06-30.34Q310.78-29.95 309.44-29.95L309.44-29.95L309.44-29.95Q306.88-29.95 305.15-31.17L305.15-31.17L305.15-31.17Q303.42-32.38 303.42-35.01L303.42-35.01L303.42-35.01Q303.42-36.42 304-37.54L304-37.54L304-37.54Q304.58-38.66 305.57-39.39L305.57-39.39L305.57-39.39Q306.56-40.13 307.87-40.51L307.87-40.51L307.87-40.51Q309.18-40.90 310.59-40.90L310.59-40.90L310.59-40.90Q313.09-40.90 314.82-39.68L314.82-39.68L314.82-39.68Q316.54-38.46 316.54-35.90ZM332.10-23.42L332.48-23.42L332.48-23.42Q333.82-24.70 335.49-25.79L335.49-25.79L335.49-25.79Q336.96-26.69 339.01-27.46L339.01-27.46L339.01-27.46Q341.06-28.22 343.62-28.22L343.62-28.22L343.62-28.22Q346.69-28.22 348.19-26.82L348.19-26.82L348.19-26.82Q349.70-25.41 349.89-23.36L349.89-23.36L350.27-23.36L350.27-23.36Q351.74-24.70 353.47-25.79L353.47-25.79L353.47-25.79Q354.94-26.69 356.93-27.46L356.93-27.46L356.93-27.46Q358.91-28.22 361.15-28.22L361.15-28.22L361.15-28.22Q364.48-28.22 366.56-26.40L366.56-26.40L366.56-26.40Q368.64-24.58 368.64-21.70L368.64-21.70L368.64-21.70Q368.64-20.22 368.13-17.79L368.13-17.79L368.13-17.79Q367.62-15.36 366.98-12.48L366.98-12.48L364.29 0L351.68 0L355.14-16.70L355.14-16.70Q355.33-17.66 355.52-18.56L355.52-18.56L355.52-18.56Q355.71-19.46 355.71-20.03L355.71-20.03L355.71-20.03Q355.71-20.93 355.20-21.54L355.20-21.54L355.20-21.54Q354.69-22.14 353.73-22.14L353.73-22.14L353.73-22.14Q352.51-22.14 351.46-21.28L351.46-21.28L351.46-21.28Q350.40-20.42 349.82-19.84L349.82-19.84L345.66 0L333.70 0L337.22-16.70L337.22-16.70Q337.34-17.54 337.54-18.40L337.54-18.40L337.54-18.40Q337.73-19.26 337.73-19.97L337.73-19.97L337.73-19.97Q337.73-20.93 337.25-21.54L337.25-21.54L337.25-21.54Q336.77-22.14 335.81-22.14L335.81-22.14L335.81-22.14Q334.66-22.14 333.60-21.31L333.60-21.31L333.60-21.31Q332.54-20.48 331.97-19.90L331.97-19.90L327.74 0L314.69 0L320.51-27.52L330.94-27.52L332.10-23.42ZM373.82-19.46L375.04-25.15L375.04-25.15Q378.30-26.75 381.73-27.49L381.73-27.49L381.73-27.49Q385.15-28.22 389.38-28.22L389.38-28.22L389.38-28.22Q393.47-28.22 396.16-27.58L396.16-27.58L396.16-27.58Q398.85-26.94 400.45-25.73L400.45-25.73L400.45-25.73Q402.05-24.51 402.69-22.85L402.69-22.85L402.69-22.85Q403.33-21.18 403.33-19.07L403.33-19.07L403.33-19.07Q403.33-17.86 403.17-16.45L403.17-16.45L403.17-16.45Q403.01-15.04 402.82-14.08L402.82-14.08L399.81 0L389.50 0L388.35-4.10L387.97-4.10L387.97-4.10Q385.92-1.86 383.20-0.67L383.20-0.67L383.20-0.67Q380.48 0.51 377.79 0.51L377.79 0.51L377.79 0.51Q376.26 0.51 374.78 0.06L374.78 0.06L374.78 0.06Q373.31-0.38 372.16-1.31L372.16-1.31L372.16-1.31Q371.01-2.24 370.30-3.68L370.30-3.68L370.30-3.68Q369.60-5.12 369.60-7.17L369.60-7.17L369.60-7.17Q369.60-10.50 371.42-12.45L371.42-12.45L371.42-12.45Q373.25-14.40 376.22-15.39L376.22-15.39L376.22-15.39Q379.20-16.38 382.94-16.64L382.94-16.64L382.94-16.64Q386.69-16.90 390.46-16.90L390.46-16.90L390.46-16.90Q390.59-17.54 390.78-18.72L390.78-18.72L390.78-18.72Q390.98-19.90 390.98-20.80L390.98-20.80L390.98-20.80Q390.98-21.95 390.37-22.94L390.37-22.94L390.37-22.94Q389.76-23.94 387.84-23.94L387.84-23.94L387.84-23.94Q385.60-23.94 384.54-22.62L384.54-22.62L384.54-22.62Q383.49-21.31 383.17-19.46L383.17-19.46L373.82-19.46ZM388.74-8.96L389.76-13.89L388.61-13.89L388.61-13.89Q386.75-13.89 385.44-13.41L385.44-13.41L385.44-13.41Q384.13-12.93 383.33-12.16L383.33-12.16L383.33-12.16Q382.53-11.39 382.14-10.43L382.14-10.43L382.14-10.43Q381.76-9.47 381.76-8.51L381.76-8.51L381.76-8.51Q381.76-6.98 382.56-6.21L382.56-6.21L382.56-6.21Q383.36-5.44 384.45-5.44L384.45-5.44L384.45-5.44Q385.79-5.44 387.10-6.40L387.10-6.40L387.10-6.40Q388.42-7.36 388.74-8.96L388.74-8.96ZM427.33-43.01L418.18 0L405.12 0L414.21-43.01L427.33-43.01Z" fill="#0a0a0a"></path></g></g><style>text {
  font-size: 64px;
  font-family: Arial Black;
  dominant-baseline: central;
  text-anchor: middle;
}</style></svg>